<svg width="50" height="58" viewBox="0 0 50 58" fill="none" xmlns="http://www.w3.org/2000/svg">
<g clip-path="url(#clip0_17_350)">
<path d="M16.7998 26.4C17.9044 26.4 18.7998 25.5046 18.7998 24.4C18.7998 23.2955 17.9044 22.4 16.7998 22.4C15.6952 22.4 14.7998 23.2955 14.7998 24.4C14.7998 25.5046 15.6952 26.4 16.7998 26.4Z" fill="#5E30F3"/>
<path d="M35.0001 24.4C35.0001 25.5 34.1001 26.4 33.1001 26.4C32.0001 26.4 31.1001 25.5 31.1001 24.4C31.1001 23.3 32.0001 22.4 33.1001 22.4C34.1001 22.4 35.0001 23.3 35.0001 24.4Z" fill="#5E30F3"/>
<path d="M25.5 0H3.1C1.4 0 0 1.4 0 3.1V54.1C0 56.6 2.8 58.1 4.9 56.7L21 45.6H29.8C30 45.6 30.2 45.6 30.4 45.5C41.6 43.3 50 34.1 50 23C50 10.3 39 0 25.5 0ZM38.6 28.2H35.6V32C35.6 32.5 35.2 32.9 34.7 32.9H31.4C30.9 32.9 30.5 32.5 30.5 32V28.2H19V32C19 32.5 18.6 32.9 18.1 32.9H14.8C14.3 32.9 13.9 32.5 13.9 32V28.2H10.6V21.1H10.7L15 18.6V13H34V18.5L38.6 21H38.7V28.2H38.6Z" fill="#065D44"/>
<path d="M38.5001 21L34.0001 18.5V13H15.1001V18.5L10.7001 21H10.6001V28.1H13.9001V32C13.9001 32.5 14.3001 32.9 14.8001 32.9H18.1001C18.6001 32.9 19.0001 32.5 19.0001 32V28.2H30.5001V32C30.5001 32.5 30.9001 32.9 31.4001 32.9H34.7001C35.2001 32.9 35.6001 32.5 35.6001 32V28.2H38.6001L38.5001 21Z" fill="#F1F524"/>
<path d="M16.7998 26.4C17.9044 26.4 18.7998 25.5046 18.7998 24.4C18.7998 23.2955 17.9044 22.4 16.7998 22.4C15.6952 22.4 14.7998 23.2955 14.7998 24.4C14.7998 25.5046 15.6952 26.4 16.7998 26.4Z" fill="#065D44"/>
<path d="M33 26.4C31.9 26.4 31 25.5 31 24.4C31 23.3 31.9 22.4 33 22.4C34.1 22.4 34.9 23.3 34.9 24.4C35 25.5 34.1 26.4 33 26.4Z" fill="#065D44"/>
</g>
<defs>
<clipPath id="clip0_17_350">
<rect width="50" height="57.2" fill="white"/>
</clipPath>
</defs>
</svg>
