<svg width="21" height="21" viewBox="0 0 21 21" fill="none" xmlns="http://www.w3.org/2000/svg">
<path d="M10.3847 0C10.2236 0 10.0625 0.0044056 9.90143 0.0118951L9.93626 0.804018C10.0843 0.796969 10.2323 0.793004 10.3847 0.793004C15.5575 0.793004 19.7462 5.03117 19.7462 10.265C19.7462 15.4988 15.5575 19.737 10.3847 19.737C6.48339 19.737 3.14155 17.3271 1.73514 13.8952L2.93821 13.5295L0.829473 12.0184L0 14.4195L0.98187 14.1243C2.48973 17.8778 6.13505 20.53 10.3847 20.53C15.9842 20.53 20.53 15.9306 20.53 10.265C20.53 4.59942 15.9842 0 10.3847 0ZM9.04365 0.0898739C8.46454 0.166972 7.90721 0.292531 7.36293 0.463467L7.60677 1.21638C8.10315 1.06042 8.62129 0.945437 9.14815 0.874948L9.04365 0.0898739ZM6.56176 0.755997C6.02184 0.978479 5.50805 1.2459 5.02038 1.55429L5.43403 2.22438C5.88251 1.94066 6.35712 1.69439 6.85349 1.48997L6.56176 0.755997ZM4.30629 2.04859C3.8492 2.39527 3.42171 2.7802 3.02834 3.19933L3.59656 3.74034C3.95796 3.35397 4.35419 2.99976 4.77219 2.68035L4.56319 2.39091L4.30629 2.04859ZM7.33245 2.42659L7.14087 3.19493L16.5895 5.63914L16.781 4.87257L7.33245 2.42659ZM2.46316 3.85488C2.10656 4.30425 1.78652 4.78887 1.50786 5.29551L2.18929 5.6832C2.44662 5.2118 2.74183 4.76684 3.07144 4.34831L2.46316 3.85488ZM8.02042 4.24257C7.8506 5.38802 8.14233 6.67445 8.63871 7.73179C8.91738 8.32214 9.25701 8.842 9.59228 9.22088C9.77515 9.42794 9.95803 9.58654 10.1235 9.70109L9.88836 10.6351C9.68807 10.6527 9.45294 10.7056 9.19169 10.7981C8.71709 10.9655 8.17281 11.2563 7.65031 11.6395C6.70981 12.3268 5.84768 13.3093 5.4558 14.3974L12.7491 16.2874C12.9189 15.142 12.6271 13.8555 12.1308 12.7982C11.8521 12.2079 11.5125 11.688 11.1772 11.3091C10.9943 11.1021 10.8115 10.9435 10.646 10.8289L10.8811 9.89493C11.0771 9.8729 11.3165 9.82444 11.5778 9.73193C12.0524 9.56451 12.5967 9.27375 13.1192 8.89046C14.0597 8.20319 14.9218 7.22075 15.3137 6.13257L8.02042 4.24257ZM1.12077 6.07529C0.88869 6.60396 0.698412 7.15026 0.554724 7.71858L1.31584 7.90361C1.44777 7.38375 1.62237 6.88152 1.83616 6.3969L1.12077 6.07529ZM0.378814 8.56885C0.287812 9.11955 0.23948 9.68787 0.23948 10.265V10.3047L1.02323 10.2958V10.265C1.02323 9.73193 1.06765 9.20766 1.15168 8.69661L0.378814 8.56885ZM4.18002 14.8909L3.98844 15.6574L13.437 18.1025L13.6286 17.336L4.18002 14.8909Z" fill="#F1F524"/>
</svg>
