<svg width="20" height="20" viewBox="0 0 20 20" fill="none" xmlns="http://www.w3.org/2000/svg">
<path d="M16.6914 9.69727C17.0926 9.96419 17.4504 10.2669 17.7647 10.6055C18.079 10.944 18.3498 11.3151 18.5772 11.7188C18.8045 12.1224 18.9717 12.5488 19.0787 12.998C19.1857 13.4473 19.2459 13.9062 19.2593 14.375C19.2593 15.1497 19.1088 15.8789 18.8079 16.5625C18.5069 17.2461 18.0923 17.8418 17.564 18.3496C17.0357 18.8574 16.4239 19.2578 15.7284 19.5508C15.0329 19.8438 14.2839 19.9935 13.4815 20C12.8729 20 12.2845 19.9121 11.716 19.7363C11.1476 19.5605 10.626 19.3066 10.1512 18.9746C9.67644 18.6426 9.25514 18.2454 8.88735 17.7832C8.51955 17.321 8.23534 16.8099 8.03472 16.25H0V1.25H2.5679V0H3.85185V1.25H12.8395V0H14.1235V1.25H16.6914V9.69727ZM1.28395 2.5V5H15.4074V2.5H14.1235V3.75H12.8395V2.5H3.85185V3.75H2.5679V2.5H1.28395ZM7.7338 15C7.71373 14.7982 7.7037 14.5898 7.7037 14.375C7.7037 13.8151 7.78395 13.2715 7.94444 12.7441C8.10494 12.2168 8.34902 11.7188 8.6767 11.25H7.7037V10H8.98765V10.8398C9.26183 10.5078 9.5661 10.2148 9.90046 9.96094C10.2348 9.70703 10.5959 9.48893 10.9838 9.30664C11.3717 9.12435 11.7762 8.98763 12.1975 8.89648C12.6188 8.80534 13.0468 8.75651 13.4815 8.75C14.1502 8.75 14.7922 8.85742 15.4074 9.07227V6.25H1.28395V15H7.7338ZM13.4815 18.75C14.1034 18.75 14.6852 18.6361 15.2269 18.4082C15.7685 18.1803 16.2433 17.8678 16.6512 17.4707C17.0592 17.0736 17.3801 16.6113 17.6142 16.084C17.8482 15.5566 17.9686 14.987 17.9753 14.375C17.9753 13.7695 17.8583 13.2031 17.6242 12.6758C17.3902 12.1484 17.0692 11.6862 16.6613 11.2891C16.2533 10.8919 15.7785 10.5794 15.2369 10.3516C14.6952 10.1237 14.1101 10.0065 13.4815 10C12.8596 10 12.2778 10.1139 11.7361 10.3418C11.1944 10.5697 10.7197 10.8822 10.3117 11.2793C9.90381 11.6764 9.58282 12.1387 9.34877 12.666C9.11471 13.1934 8.99434 13.763 8.98765 14.375C8.98765 14.9805 9.10468 15.5469 9.33873 16.0742C9.57279 16.6016 9.89377 17.0638 10.3017 17.4609C10.7096 17.8581 11.1844 18.1706 11.7261 18.3984C12.2677 18.6263 12.8529 18.7435 13.4815 18.75ZM14.1235 13.75H16.0494V15H12.8395V11.25H14.1235V13.75ZM2.5679 10H3.85185V11.25H2.5679V10ZM5.1358 10H6.41975V11.25H5.1358V10ZM5.1358 7.5H6.41975V8.75H5.1358V7.5ZM2.5679 12.5H3.85185V13.75H2.5679V12.5ZM5.1358 12.5H6.41975V13.75H5.1358V12.5ZM8.98765 8.75H7.7037V7.5H8.98765V8.75ZM11.5556 8.75H10.2716V7.5H11.5556V8.75ZM14.1235 8.75H12.8395V7.5H14.1235V8.75Z" fill="#F1F524"/>
</svg>
