<svg width="16" height="18" viewBox="0 0 16 18" fill="none" xmlns="http://www.w3.org/2000/svg">
<path d="M7.26896 17.5C6.88907 17.5 6.5092 17.405 6.16096 17.2151C5.45659 16.8194 5.0371 16.115 5.0371 15.3156V11.0815C5.0371 10.6778 4.77591 10.0843 4.53056 9.7756L1.52313 6.6178C1.02452 6.11919 0.636719 5.24861 0.636719 4.60755V2.77144C0.636719 1.49723 1.60228 0.5 2.82901 0.5H13.3867C14.5976 0.5 15.579 1.48139 15.579 2.69229V4.44927C15.579 5.28028 15.0804 6.2379 14.6056 6.70485C14.376 6.93436 13.9962 6.93436 13.7666 6.70485C13.5371 6.47533 13.5371 6.09544 13.7666 5.86593C14.0595 5.5731 14.3919 4.91622 14.3919 4.44927V2.69229C14.3919 2.13829 13.9408 1.68715 13.3867 1.68715H2.82901C2.26709 1.68715 1.82387 2.16204 1.82387 2.77144V4.60755C1.82387 4.90038 2.0613 5.47814 2.36996 5.7868L5.41702 8.99208C5.82065 9.49068 6.21632 10.3296 6.21632 11.0815V15.3156C6.21632 15.838 6.57249 16.0912 6.73078 16.1783C7.0711 16.3682 7.47473 16.3603 7.7913 16.1704L8.89931 15.4581C9.12883 15.3236 9.35043 14.8883 9.35043 14.5954C9.35043 14.2709 9.61952 14.0019 9.94401 14.0019C10.2685 14.0019 10.5376 14.2709 10.5376 14.5954C10.5376 15.3077 10.0944 16.1229 9.53246 16.4632L8.43237 17.1755C8.07622 17.3892 7.67259 17.5 7.26896 17.5Z" fill="#F1F524"/>
<path d="M11.3371 13.1631C9.61178 13.1631 8.21094 11.7622 8.21094 10.0369C8.21094 8.31159 9.61178 6.91077 11.3371 6.91077C13.0624 6.91077 14.4633 8.31159 14.4633 10.0369C14.4633 11.7622 13.0624 13.1631 11.3371 13.1631ZM11.3371 8.0979C10.2687 8.0979 9.39809 8.96848 9.39809 10.0369C9.39809 11.1054 10.2687 11.9759 11.3371 11.9759C12.4055 11.9759 13.2761 11.1054 13.2761 10.0369C13.2761 8.96848 12.4055 8.0979 11.3371 8.0979Z" fill="#F1F524"/>
<path d="M14.3445 13.6379C14.1941 13.6379 14.0437 13.5825 13.925 13.4637L13.1336 12.6723C12.904 12.4428 12.904 12.0629 13.1336 11.8334C13.3631 11.6039 13.743 11.6039 13.9725 11.8334L14.7639 12.6248C14.9934 12.8543 14.9934 13.2342 14.7639 13.4637C14.6531 13.5745 14.4948 13.6379 14.3445 13.6379Z" fill="#F1F524"/>
</svg>
